<?xml version="1.0" encoding="UTF-8"?>
<svg width="40px" height="40px" viewBox="0 0 40 40" version="1.1" xmlns="http://www.w3.org/2000/svg" xmlns:xlink="http://www.w3.org/1999/xlink">
    <!-- Generator: Sketch 52.6 (67491) - http://www.bohemiancoding.com/sketch -->
    <title>Group 3</title>
    <desc>Created with Sketch.</desc>
    <g id="Self-Service-V5" stroke="none" stroke-width="1" fill="none" fill-rule="evenodd">
        <g id="1B-Home" transform="translate(-16.000000, -403.000000)" fill="#5769CC" fill-rule="nonzero">
            <g id="Group-4-Copy" transform="translate(0.000000, 372.000000)">
                <g id="Group-3" transform="translate(16.000000, 31.000000)">
                    <g id="Group-4">
                        <path d="M20,-2.27373675e-13 C8.93333333,-2.27373675e-13 0,8.97777778 0,20 C0,31.0222222 8.97777778,40 20,40 C31.0222222,40 40,31.0222222 40,20 C40,8.97777778 31.0222222,-2.27373675e-13 20,-2.27373675e-13 Z M20,39.2 C9.42245431,39.2 0.8,30.6276762 0.8,20 C0.8,9.37232376 9.37232376,0.8 20,0.8 C30.6276762,0.8 39.2,9.37232376 39.2,20 C39.2,30.6276762 30.5775457,39.2 20,39.2 Z M25.1503426,11.1737827 C25.0154445,11.03921 24.7975796,11.0400151 24.6626814,11.1745878 L22.2480883,13.589181 C22.144981,13.7101437 22.1339996,13.862408 22.2151442,14.0459739 L20.1510024,14.672131 L17.7727571,13.9363181 C17.8848398,13.8242353 17.8435402,13.654319 17.7036177,13.5157205 L15.2901508,11.1009296 C15.1552527,10.9663568 14.9365827,10.9663568 14.8016846,11.1009296 L9.10114308,16.7912623 C8.96628564,16.9258757 8.96628564,17.1440841 9.10114308,17.2786975 L11.5214093,19.6979289 C11.6753793,19.8529337 11.842885,19.8661901 11.9420069,19.7670682 L12.655774,22.2056592 L12.3818321,22.4793675 C12.0035764,22.8567703 11.8904126,23.4243975 12.0951157,23.9175306 C12.2998188,24.4106636 12.7820695,24.7321723 13.3169653,24.7321179 C13.3390741,24.7321179 13.360492,24.726947 13.3826007,24.7255682 C13.3826007,24.747975 13.3760372,24.769003 13.3760372,24.7914098 C13.3769892,25.5199406 13.9686931,26.1102414 14.6987652,26.111001 C14.720874,26.111001 14.7422919,26.1058302 14.7644007,26.1044513 C14.7644007,26.1268582 14.7578372,26.1478862 14.7578372,26.170293 C14.7587891,26.8988238 15.3504931,27.4891245 16.0805652,27.4898842 C16.102674,27.4898842 16.1240919,27.4847134 16.1462007,27.4833345 C16.1462007,27.5057414 16.1396371,27.5267693 16.1396371,27.5491762 C16.1395826,28.0829428 16.4617714,28.5641755 16.9559475,28.7684466 C17.4501237,28.9727176 18.0189517,28.8597926 18.3971528,28.4823354 L18.7301666,28.1496798 L19.4089758,28.8270562 C19.7871445,29.2047601 20.356133,29.317842 20.8504605,29.1135396 C21.3447881,28.9092373 21.6670314,28.4278151 21.666837,27.893897 C21.666837,27.8714901 21.6616552,27.8504622 21.6602734,27.8280553 C21.6823822,27.8280553 21.7038001,27.834605 21.7259089,27.834605 C22.455981,27.8338453 23.047685,27.2435446 23.0486369,26.5150138 C23.0486369,26.4926069 23.0434552,26.471579 23.0420734,26.4491721 C23.0641822,26.4491721 23.0856001,26.4557218 23.1077089,26.4557218 C23.837781,26.4549622 24.4294849,25.8646614 24.4304369,25.1361306 C24.4304369,25.1137238 24.4252551,25.0926958 24.4238733,25.070289 C24.4459821,25.070289 24.4674,25.0768386 24.4895088,25.0768386 C25.0244046,25.0768931 25.5066552,24.7553844 25.7113584,24.2622514 C25.9160615,23.7691183 25.8028976,23.2014911 25.4246419,22.8240883 L25.2287718,22.6282869 L27.5342562,19.3650858 C27.7056085,19.4838813 27.8597682,19.4747954 27.9967354,19.3378282 L30.4169485,16.9176151 C30.551806,16.7830017 30.5506551,16.5636425 30.4157977,16.429029 L25.1503426,11.1737827 Z M15.0446343,11.8333301 L16.9718932,13.7605889 L11.7662778,18.9662043 L9.83901897,17.0389455 L15.0446343,11.8333301 Z M13.3169653,24.0426763 C13.0614666,24.0427903 12.8310753,23.889258 12.7332847,23.6537127 C12.6354941,23.4181673 12.6895764,23.1470291 12.8702984,22.9668027 L13.3338923,22.5034979 C13.5145902,22.3232645 13.7862779,22.2693623 14.0223214,22.3669152 C14.2583649,22.464468 14.4123039,22.6942747 14.4123872,22.9492219 C14.4119555,23.1163434 14.3454096,23.2765343 14.227226,23.3949459 L13.7636321,23.8582506 C13.6453431,23.9767001 13.4845415,24.043094 13.3169653,24.0426763 Z M14.6987652,25.4215594 C14.4432666,25.4216735 14.2128752,25.2681412 14.1150847,25.0325958 C14.0172941,24.7970505 14.0713764,24.5259123 14.2520984,24.3456858 L14.7156923,23.8823811 C14.8963902,23.7021477 15.1680779,23.6482455 15.4041214,23.7457984 C15.6401648,23.8433512 15.7941038,24.0731578 15.7941871,24.3281051 C15.7937555,24.4952265 15.7272095,24.6554175 15.6090259,24.7738291 L15.145432,25.2371338 C15.0271431,25.3555833 14.8663415,25.4219772 14.6987652,25.4215594 Z M16.0805652,26.8004426 C15.8250665,26.8005567 15.5946752,26.6470243 15.4968846,26.411479 C15.3990941,26.1759337 15.4531763,25.9047954 15.6338983,25.724569 L16.0974922,25.2612643 C16.2781902,25.0810309 16.5498778,25.0271287 16.7859213,25.1246815 C17.0219648,25.2222344 17.1759038,25.452041 17.1759871,25.7069883 C17.1755555,25.8741097 17.1090095,26.0343006 16.9908259,26.1527122 L16.527232,26.616017 C16.408943,26.7344665 16.2481415,26.8008603 16.0805652,26.8004426 Z M18.3726259,27.5315954 L17.909032,27.9949002 C17.728334,28.1751335 17.4566464,28.2290358 17.2206029,28.1314829 C16.9845594,28.0339301 16.8306204,27.8041234 16.8305371,27.5491762 C16.8309687,27.3820547 16.8975147,27.2218638 17.0156983,27.1034522 L17.4792922,26.6401474 C17.6599901,26.4599141 17.9316778,26.4060119 18.1677213,26.5035647 C18.4037648,26.6011175 18.5577037,26.8309242 18.557787,27.0858714 C18.5573554,27.2529929 18.4908094,27.4131838 18.3726259,27.5315954 Z M24.042842,24.2029714 L22.1698493,22.3326755 L21.681383,22.8201107 L23.5547212,24.6904066 C23.7351334,24.8707997 23.7889707,25.1418374 23.6911543,25.3772631 C23.5933378,25.6126887 23.3631066,25.7661973 23.1077089,25.7662802 C22.9401326,25.7666979 22.779331,25.7003041 22.661042,25.5818546 L20.7880493,23.7115587 L20.299583,24.1989939 L22.1729212,26.0692898 C22.3533334,26.2496828 22.4071708,26.5207206 22.3093543,26.7561463 C22.2115378,26.9915719 21.9813067,27.1450805 21.7259089,27.1451634 C21.5583326,27.1455811 21.3975311,27.0791873 21.2792421,26.9607378 L19.4062493,25.0904418 L18.9177831,25.577877 L20.7911212,27.448173 C20.9715335,27.628566 21.0253708,27.8996038 20.9275543,28.1350294 C20.8297379,28.3704551 20.5995067,28.5239636 20.3441089,28.5240466 C20.1765327,28.5244643 20.0157311,28.4580704 19.8974421,28.339621 L19.1485065,27.5933004 C19.3177146,27.1857153 19.271906,26.7207475 19.0263959,26.3538481 C18.7808857,25.9869486 18.3680682,25.7665286 17.925959,25.7662802 C17.9038502,25.7662802 17.8824323,25.771451 17.8603235,25.7728299 C17.8603235,25.7504231 17.8668871,25.7293951 17.8668871,25.7069883 C17.8659351,24.9784574 17.2742312,24.3881567 16.5441591,24.3873971 C16.5220503,24.3873971 16.5006324,24.3925679 16.4785236,24.3939468 C16.4785236,24.3715399 16.4850871,24.3505119 16.4850871,24.3281051 C16.4841352,23.5995743 15.8924312,23.0092735 15.1623591,23.0085139 C15.1402503,23.0085139 15.1188324,23.0136847 15.0967236,23.0150636 C15.0967236,22.9926567 15.1032871,22.9716288 15.1032871,22.9492219 C15.1037789,22.5064723 14.8816737,22.0929995 14.5119065,21.8483031 C14.1421394,21.6036067 13.6740231,21.5603198 13.2654932,21.733047 L12.5274064,19.1713374 L17.2692586,14.4401339 L19.145052,15.0644232 L18.6037319,15.2757371 C18.5593208,15.2932046 18.5189876,15.3196063 18.4852425,15.3532992 L15.1443957,18.6874388 C14.627936,19.2028083 14.627936,20.0383875 15.1443957,20.5537571 C15.6608555,21.0691267 16.4982022,21.0691267 17.0146619,20.5537571 L18.571605,18.9997558 C19.0606394,19.381481 19.6641655,19.5878981 20.285037,19.5857811 C20.5563216,19.5859483 20.8261852,19.546698 21.0861355,19.4692655 L24.9365211,23.3115235 C25.1169333,23.4919165 25.1707707,23.7629543 25.0729542,23.9983799 C24.9751377,24.2338056 24.7449066,24.3873141 24.4895088,24.3873971 C24.3219325,24.3878148 24.161131,24.3214209 24.042842,24.2029714 Z M24.7344329,22.1349914 L21.7573449,19.1641876 C21.9380908,19.052315 22.1055509,18.9203644 22.2565201,18.7708612 L22.6019701,18.4261404 L22.1135038,17.9387052 L21.7680538,18.283426 C20.9489445,19.100596 19.6211295,19.100596 18.8020202,18.283426 C18.667122,18.1488532 18.4484521,18.1488532 18.3135539,18.283426 L16.527232,20.0663219 C16.3465341,20.2465553 16.0748464,20.3004575 15.8388029,20.2029047 C15.6027594,20.1053518 15.4488205,19.8755452 15.4487371,19.6205979 C15.4491688,19.4534765 15.5157147,19.2932856 15.6338983,19.174874 L18.9236186,15.8917531 L22.7612101,14.5914133 L27.0862564,18.9063365 L24.7344329,22.1349914 Z M27.7536333,18.5985757 L22.9769903,13.8311104 L24.9060777,11.9049038 L29.6841611,16.6738095 L27.7536333,18.5985757 Z" id="Shape" transform="translate(20.000000, 20.000000) rotate(-360.000000) translate(-20.000000, -20.000000) "></path>
                    </g>
                </g>
            </g>
        </g>
    </g>
</svg>