<?xml version="1.0" encoding="UTF-8"?>
<svg width="40px" height="40px" viewBox="0 0 40 40" version="1.1" xmlns="http://www.w3.org/2000/svg" xmlns:xlink="http://www.w3.org/1999/xlink">
    <!-- Generator: Sketch 52.6 (67491) - http://www.bohemiancoding.com/sketch -->
    <title>Group 6</title>
    <desc>Created with Sketch.</desc>
    <g id="Self-Service-V5" stroke="none" stroke-width="1" fill="none" fill-rule="evenodd">
        <g id="1B-Home" transform="translate(-16.000000, -95.000000)" fill="#5769CC" fill-rule="nonzero">
            <g id="Group-4" transform="translate(0.000000, 64.000000)">
                <g id="Group-6" transform="translate(16.000000, 31.000000)">
                    <path d="M20,0 C8.93333333,0 0,8.97777778 0,20 C0,31.0222222 8.97777778,40 20,40 C31.0222222,40 40,31.0222222 40,20 C40,8.97777778 31.0222222,0 20,0 Z M20,39.2 C9.42245431,39.2 0.8,30.6276762 0.8,20 C0.8,9.37232376 9.37232376,0.8 20,0.8 C30.6276762,0.8 39.2,9.37232376 39.2,20 C39.2,30.6276762 30.5775457,39.2 20,39.2 Z M17.1619318,12 C16.4822471,12 15.9090909,12.5481675 15.9090909,13.2272727 L15.9090909,14.4545455 L12.2272727,14.4545455 C11.5544398,14.4545455 11,15.0089843 11,15.6818182 L11,26.7272727 C11,27.4001045 11.5544398,27.9545455 12.2272727,27.9545455 L27.7727273,27.9545455 C28.4455601,27.9545455 29,27.4001045 29,26.7272727 L29,15.6818182 C29,15.0089843 28.4455601,14.4545455 27.7727273,14.4545455 L24.0909091,14.4545455 L24.0909091,13.2272727 C24.0909091,12.5481675 23.5177529,12 22.8380682,12 L17.1619318,12 Z M17.1619318,12.8181818 L22.8380682,12.8181818 C23.0908301,12.8181818 23.2727273,12.9998325 23.2727273,13.2272727 L23.2727273,14.4545455 L16.7272727,14.4545455 L16.7272727,13.2272727 C16.7272727,12.9998325 16.9091699,12.8181818 17.1619318,12.8181818 Z M12.2272727,15.2727273 L27.7727273,15.2727273 C28.0064399,15.2727273 28.1818182,15.4481066 28.1818182,15.6818182 L28.1818182,19.8494318 C26.3064092,20.6658916 23.9834802,21.2136007 21.4318182,21.3643466 L21.4318182,20.5909091 C21.4317956,20.3649838 21.2486526,20.1818408 21.0227273,20.1818182 L18.9772727,20.1818182 C18.9644957,20.1812187 18.9516975,20.1812187 18.9389205,20.1818182 C18.7280932,20.201688 18.5672687,20.3791495 18.5681818,20.5909091 L18.5681818,21.3643466 C16.0165198,21.2136007 13.6935908,20.6658916 11.8181818,19.8494318 L11.8181818,15.6818182 C11.8181818,15.4481066 11.9935601,15.2727273 12.2272727,15.2727273 Z M11.8181818,20.7379261 C13.746106,21.5271093 16.0535642,22.0457771 18.5681818,22.1889205 L18.5681818,23.0454545 C18.5682044,23.2713799 18.7513474,23.4545229 18.9772727,23.4545455 L21.0227273,23.4545455 C21.2486526,23.4545229 21.4317956,23.2713799 21.4318182,23.0454545 L21.4318182,22.1889205 C23.9464358,22.0457771 26.2538942,21.5271093 28.1818182,20.7379261 L28.1818182,26.7272727 C28.1818182,26.9609864 28.0064399,27.1363636 27.7727273,27.1363636 L12.2272727,27.1363636 C11.9935601,27.1363636 11.8181818,26.9609864 11.8181818,26.7272727 L11.8181818,20.7379261 Z M19.3863636,21 L20.6136364,21 L20.6136364,22.6363636 L19.3863636,22.6363636 L19.3863636,21 Z" id="Shape"></path>
                </g>
            </g>
        </g>
    </g>
</svg>