<?xml version="1.0" encoding="UTF-8"?>
<svg width="40px" height="40px" viewBox="0 0 40 40" version="1.1" xmlns="http://www.w3.org/2000/svg" xmlns:xlink="http://www.w3.org/1999/xlink">
    <!-- Generator: Sketch 52.6 (67491) - http://www.bohemiancoding.com/sketch -->
    <title>Group 2</title>
    <desc>Created with Sketch.</desc>
    <g id="Self-Service-V5" stroke="none" stroke-width="1" fill="none" fill-rule="evenodd">
        <g id="1B-Home" transform="translate(-16.000000, -198.000000)" fill="#5769CC" fill-rule="nonzero">
            <g id="Group-4-Copy-2" transform="translate(0.000000, 167.000000)">
                <g id="Group-2" transform="translate(16.000000, 31.000000)">
                    <path d="M20,0 C8.93333333,0 0,8.97777778 0,20 C0,31.0222222 8.97777778,40 20,40 C31.0222222,40 40,31.0222222 40,20 C40,8.97777778 31.0222222,0 20,0 Z M20,39.2 C9.42245431,39.2 0.8,30.6276762 0.8,20 C0.8,9.37232376 9.37232376,0.8 20,0.8 C30.6276762,0.8 39.2,9.37232376 39.2,20 C39.2,30.6276762 30.5775457,39.2 20,39.2 Z M13.4186046,11.0000121 C13.193521,11.0000058 12.9998327,11.2300541 13.0000001,11.4186166 L13.0000001,28.5813955 C13.000021,28.8005768 13.1994233,28.9999791 13.4186046,29 L26.8139493,29 C27.0331306,28.9999791 27.2325329,28.8005768 27.2325538,28.5813955 L27.2325538,15.1860573 C27.2325538,15.0746143 27.1875539,14.963548 27.1082702,14.8851853 L23.3408295,11.1177446 C23.2629482,11.0423979 23.1548854,10.9991686 23.0465087,11.0000121 L13.4186046,11.0000121 Z M13.8372091,11.8372211 L22.6279042,11.8372211 L22.6279042,15.1860573 C22.6279251,15.4052323 22.8273274,15.6046409 23.0465087,15.6046618 L26.3953448,15.6046618 L26.3953448,28.162791 L13.8372091,28.162791 L13.8372091,11.8372211 Z M23.4651132,12.4258837 L25.8066822,14.7674528 L23.4651132,14.7674528 L23.4651132,12.4258837 Z M15.7209297,14.7674528 C15.4897344,14.7674528 15.3023252,14.954862 15.3023252,15.1860573 C15.3023252,15.4172525 15.4897344,15.6046618 15.7209297,15.6046618 L19.9069748,15.6046618 C20.1381701,15.6046618 20.3255793,15.4172525 20.3255793,15.1860573 C20.3255793,14.954862 20.1381701,14.7674528 19.9069748,14.7674528 L15.7209297,14.7674528 Z M15.7209297,19.7907069 C15.4897344,19.7907069 15.3023252,19.9781162 15.3023252,20.2093115 C15.3023252,20.4405067 15.4897344,20.627916 15.7209297,20.627916 L24.5116245,20.627916 C24.7428198,20.627916 24.930229,20.4405067 24.930229,20.2093115 C24.930229,19.9781162 24.7428198,19.7907069 24.5116245,19.7907069 L15.7209297,19.7907069 Z M15.7209297,17.2790798 C15.4897344,17.2790798 15.3023252,17.4664891 15.3023252,17.6976844 C15.3023252,17.9288796 15.4897344,18.1162889 15.7209297,18.1162889 L24.5116245,18.1162889 C24.7428198,18.1162889 24.930229,17.9288796 24.930229,17.6976844 C24.930229,17.4664891 24.7428198,17.2790798 24.5116245,17.2790798 L15.7209297,17.2790798 Z M15.7209297,22.3023278 C15.4897344,22.3023278 15.3023252,22.489737 15.3023252,22.7209323 C15.3023252,22.9521275 15.4897344,23.1395368 15.7209297,23.1395368 L24.5116245,23.1395368 C24.7428198,23.1395368 24.930229,22.9521275 24.930229,22.7209323 C24.930229,22.489737 24.7428198,22.3023278 24.5116245,22.3023278 L15.7209297,22.3023278 Z M15.7209297,24.8139548 C15.4897344,24.8139548 15.3023252,25.0013641 15.3023252,25.2325594 C15.3023252,25.4637546 15.4897344,25.6511639 15.7209297,25.6511639 L24.5116245,25.6511639 C24.7428198,25.6511639 24.930229,25.4637546 24.930229,25.2325594 C24.930229,25.0013641 24.7428198,24.8139548 24.5116245,24.8139548 L15.7209297,24.8139548 Z" id="Shape"></path>
                </g>
            </g>
        </g>
    </g>
</svg>