<?xml version="1.0" encoding="utf-8"?>
<!-- Generator: Adobe Illustrator 22.0.1, SVG Export Plug-In . SVG Version: 6.00 Build 0)  -->
<svg version="1.1" xmlns="http://www.w3.org/2000/svg" xmlns:xlink="http://www.w3.org/1999/xlink" x="0px" y="0px"
	 viewBox="0 0 140 140" style="enable-background:new 0 0 140 140;" xml:space="preserve">
<style type="text/css">
	.st0{opacity:0.31;fill:#F0F0F6;}
	.st1{fill:#E9ECF9;}
	.st2{opacity:0.31;}
	.st3{fill:#F0F0F6;}
	.st4{opacity:0.13;fill:#686868;}
	.st5{fill:#FFFFFF;}
	.st6{fill:#686868;}
	.st7{fill:none;stroke:#686868;stroke-width:1.5;stroke-miterlimit:10;}
	.st8{opacity:0.1;}
	.st9{fill-rule:evenodd;clip-rule:evenodd;fill:none;stroke:#000000;stroke-miterlimit:10;}
	.st10{fill:none;stroke:#000000;stroke-miterlimit:10;}
	.st11{opacity:0.3;}
	.st12{fill-rule:evenodd;clip-rule:evenodd;fill:none;stroke:#000000;stroke-width:0.75;stroke-miterlimit:10;}
	.st13{fill:none;stroke:#000000;stroke-width:0.5;stroke-miterlimit:10;stroke-opacity:0.7;}
	.st14{opacity:0.4;fill:none;stroke:#000000;stroke-miterlimit:10;}
	.st15{opacity:0.6;}
	.st16{filter:url(#Adobe_OpacityMaskFilter);}
	
		.st17{mask:url(#SVGID_1_);fill-rule:evenodd;clip-rule:evenodd;fill:#92A0E5;fill-opacity:0.64;stroke:#000000;stroke-width:0.75;stroke-miterlimit:10;}
	.st18{fill-rule:evenodd;clip-rule:evenodd;fill:#92A0E5;fill-opacity:0.31;stroke:#000000;stroke-width:0.5;stroke-miterlimit:10;}
	.st19{fill-rule:evenodd;clip-rule:evenodd;fill:#E6E6ED;}
	.st20{fill-rule:evenodd;clip-rule:evenodd;fill:#FFFFFF;stroke:#000000;stroke-miterlimit:10;}
	.st21{fill:#92A0E5;fill-opacity:0.31;stroke:#000000;stroke-width:0.75;stroke-miterlimit:10;}
	.st22{fill-rule:evenodd;clip-rule:evenodd;}
	.st23{fill:#FFFFFF;stroke:#000000;stroke-miterlimit:10;}
	.st24{fill-rule:evenodd;clip-rule:evenodd;fill:#92A0E5;fill-opacity:0.6;stroke:#000000;stroke-miterlimit:10;}
	.st25{opacity:0.3;fill:none;stroke:#000000;stroke-miterlimit:10;}
	.st26{opacity:0.2;fill:none;stroke:#000000;stroke-miterlimit:10;}
	.st27{opacity:0.4;fill:none;stroke:#000000;stroke-width:0.5;stroke-miterlimit:10;}
	.st28{opacity:0.6;fill:#92A0E5;fill-opacity:0.31;stroke:#000000;stroke-width:0.5;stroke-miterlimit:10;}
	.st29{opacity:0.4;}
	
		.st30{fill-rule:evenodd;clip-rule:evenodd;fill:#92A0E5;fill-opacity:0.31;stroke:#000000;stroke-width:0.75;stroke-miterlimit:10;}
	.st31{fill:#92A0E5;fill-opacity:0.31;stroke:#000000;stroke-width:0.5;stroke-miterlimit:10;}
	.st32{fill:none;stroke:#000000;stroke-width:0.75;stroke-miterlimit:10;}
	.st33{fill-rule:evenodd;clip-rule:evenodd;fill:none;stroke:#000000;stroke-width:0.5;stroke-miterlimit:10;}
	.st34{fill:#E6E6ED;}
	.st35{fill:none;stroke:#000000;stroke-width:0.5;stroke-miterlimit:10;}
	.st36{fill:none;}
	.st37{opacity:0.5;}
	.st38{opacity:0.8;}
	.st39{fill:#FFFFFF;stroke:#000000;stroke-width:0.5;stroke-miterlimit:10;}
	.st40{fill:none;stroke:#B3B3B3;stroke-miterlimit:10;}
	.st41{fill-rule:evenodd;clip-rule:evenodd;fill:none;stroke:#999999;stroke-miterlimit:10;}
	.st42{fill:#999999;}
	.st43{opacity:0.6;fill:none;stroke:#000000;stroke-width:0.75;stroke-miterlimit:10;stroke-opacity:0.8;}
	.st44{opacity:0.6;fill-rule:evenodd;clip-rule:evenodd;}
	.st45{opacity:0.3;fill:none;stroke:#000000;stroke-width:0.5;stroke-miterlimit:10;}
	.st46{fill:#E6E6ED;stroke:#000000;stroke-miterlimit:10;}
	.st47{fill:#E9ECF9;stroke:#000000;stroke-width:0.5;stroke-miterlimit:10;stroke-opacity:0.7;}
	.st48{opacity:0.7;}
	.st49{fill:#FFFFFF;stroke:#000000;stroke-width:0.75;stroke-miterlimit:10;stroke-opacity:0.6;}
	.st50{opacity:0.56;}
	.st51{opacity:0.2;}
	.st52{fill:#FFFFFF;stroke:#000000;stroke-miterlimit:10;stroke-opacity:0.6;}
	.st53{fill:none;stroke:#000000;stroke-miterlimit:10;stroke-opacity:0.6;}
	.st54{opacity:0.52;fill:#92A0E5;}
	.st55{opacity:0.31;fill:#92A0E5;}
	.st56{opacity:0.2;fill:#92A0E5;}
	.st57{opacity:0.6;fill:none;stroke:#000000;stroke-miterlimit:10;}
	.st58{opacity:0.62;fill-rule:evenodd;clip-rule:evenodd;}
	.st59{opacity:0.6;fill:none;stroke:#000000;stroke-width:0.75;stroke-miterlimit:10;stroke-dasharray:2,2;}
	.st60{fill:#FFFFFF;stroke:#000000;stroke-width:0.5;stroke-miterlimit:10;stroke-opacity:0.6;}
	.st61{fill:none;stroke:#000000;stroke-width:0.5;stroke-miterlimit:10;stroke-opacity:0.6;}
	.st62{fill:none;stroke:#6B6B6B;stroke-width:1.5;stroke-miterlimit:10;}
	.st63{fill:#515151;}
	.st64{fill:none;stroke:#515151;stroke-miterlimit:10;}
	.st65{opacity:0.52;fill-rule:evenodd;clip-rule:evenodd;fill:#92A0E5;}
	.st66{opacity:0.18;fill:#92A0E5;}
	.st67{fill:none;stroke:#515151;stroke-width:0.75;stroke-miterlimit:10;}
	.st68{fill-rule:evenodd;clip-rule:evenodd;fill:none;stroke:#515151;stroke-miterlimit:10;}
	.st69{fill-rule:evenodd;clip-rule:evenodd;fill:#FFFFFF;stroke:#515151;stroke-miterlimit:10;}
	.st70{fill:#FFFFFF;stroke:#515151;stroke-miterlimit:10;}
	.st71{opacity:0.31;fill:#FFFFFF;}
	.st72{opacity:0.9;}
	.st73{fill:#808080;}
	.st74{fill:none;stroke:#686868;stroke-miterlimit:10;}
	.st75{fill:#FFFFFF;stroke:#686868;stroke-miterlimit:10;}
	.st76{fill:none;stroke:#999999;stroke-miterlimit:10;}
	.st77{fill:#FFFFFF;stroke:#999999;stroke-miterlimit:10;}
</style>
<g id="Layer_1">
	<g class="st72">
		<g>
			
				<rect x="13.9" y="41.5" transform="matrix(0.9912 -0.1324 0.1324 0.9912 -5.8286 9.5017)" class="st56" width="109.3" height="14.2"/>
			<g>
				<path class="st73" d="M121.4,34.7l1.8,13.3L15.6,62.4l-1.8-13.3L121.4,34.7 M122,33.9L13,48.4l2,14.8L124,48.7L122,33.9
					L122,33.9z"/>
			</g>
		</g>
		<path class="st74" d="M119.4,90.3l-88.8,11.9c-5.4,0.7-10.3-3-11-8.4l-5.8-43.6c-0.7-5.4,3-10.3,8.4-11l90.5-12.1
			c4.4-0.6,8.4,2.5,9,6.9l6.1,45.4C128.5,84.7,124.7,89.6,119.4,90.3z"/>
	</g>
	<path class="st75" d="M113.6,114H20.5c-4.4,0-8-3.6-8-8V58.5c0-4.4,3.6-8,8-8h93.1c4.4,0,8,3.6,8,8V106
		C121.6,110.5,118,114,113.6,114z"/>
	<g>
		<path class="st54" d="M26.9,82.5c-1.9,0-3.4-1.5-3.4-3.4v-8.4c0-1.9,1.5-3.4,3.4-3.4h13.3c1.9,0,3.4,1.5,3.4,3.4v8.4
			c0,1.9-1.5,3.4-3.4,3.4H26.9z"/>
		<g>
			<path class="st6" d="M40.2,67.5c1.7,0,3.2,1.4,3.2,3.2v8.4c0,1.7-1.4,3.2-3.2,3.2H26.9c-1.7,0-3.2-1.4-3.2-3.2v-8.4
				c0-1.7,1.4-3.2,3.2-3.2H40.2 M40.2,67H26.9c-2,0-3.7,1.6-3.7,3.7v8.4c0,2,1.6,3.7,3.7,3.7h13.3c2,0,3.7-1.6,3.7-3.7v-8.4
				C43.8,68.6,42.2,67,40.2,67L40.2,67z"/>
		</g>
	</g>
</g>
<g id="Layer_2">
	<g>
		<rect x="23.1" y="93.1" class="st34" width="20.2" height="7.5"/>
	</g>
	<g>
		<rect x="45.7" y="93.1" class="st34" width="20.2" height="7.5"/>
	</g>
	<g>
		<rect x="68.2" y="93.1" class="st34" width="20.2" height="7.5"/>
	</g>
	<g>
		<rect x="90.8" y="93.1" class="st34" width="20.2" height="7.5"/>
	</g>
</g>
</svg>
