<?xml version="1.0" encoding="UTF-8"?>
<svg width="16px" height="16px" viewBox="0 0 16 16" version="1.1" xmlns="http://www.w3.org/2000/svg" xmlns:xlink="http://www.w3.org/1999/xlink">
    <!-- Generator: Sketch 52.6 (67491) - http://www.bohemiancoding.com/sketch -->
    <title>Shape</title>
    <desc>Created with Sketch.</desc>
    <g id="Self-Service-V5" stroke="none" stroke-width="1" fill="none" fill-rule="evenodd">
        <g id="1C-LCM" transform="translate(-169.000000, -480.000000)" fill="#3FC478" fill-rule="nonzero">
            <g id="Group-7" transform="translate(0.000000, 460.000000)">
                <path d="M175.705716,31.4409781 C175.743629,31.4218277 175.779191,31.3964248 175.810857,31.3647586 L181.467132,25.7084843 C181.627247,25.5483688 181.627772,25.2883547 181.467724,25.1283069 L181.177024,24.8376064 C181.017522,24.6781044 180.757222,24.6778238 180.596846,24.838199 L175.520164,29.914881 L173.272713,27.6674297 C173.111585,27.5063022 172.852405,27.5066109 172.692357,27.6666587 L172.401657,27.9573592 C172.242155,28.1168611 172.241954,28.3772412 172.402428,28.5377151 L175.229293,31.3645801 C175.358872,31.4941592 175.551866,31.5193311 175.705716,31.4409781 Z M169,28 C169,23.5817221 172.580751,20 177,20 C181.418278,20 185,23.5807506 185,28 C185,32.4182779 181.419249,36 177,36 C172.581722,36 169,32.4192494 169,28 Z" id="Shape"></path>
            </g>
        </g>
    </g>
</svg>