<?xml version="1.0" encoding="UTF-8"?>
<svg width="16px" height="16px" viewBox="0 0 16 16" version="1.1" xmlns="http://www.w3.org/2000/svg" xmlns:xlink="http://www.w3.org/1999/xlink">
    <!-- Generator: Sketch 52.6 (67491) - http://www.bohemiancoding.com/sketch -->
    <title>Shape</title>
    <desc>Created with Sketch.</desc>
    <g id="Self-Service-V5" stroke="none" stroke-width="1" fill="none" fill-rule="evenodd">
        <g id="1D-Invitation-History" transform="translate(-162.000000, -588.000000)" fill="#D46959" fill-rule="nonzero">
            <g id="Group-Copy-2" transform="translate(0.000000, 567.000000)">
                <path d="M170,21 C165.573333,21 162,24.5733333 162,29 C162,33.4266667 165.573333,37 170,37 C174.426667,37 178,33.4266667 178,29 C178,24.5733333 174.426667,21 170,21 Z M173.362998,31.5675214 C173.572334,31.7768573 173.572334,32.1327285 173.362998,32.3420644 C173.25833,32.4467324 173.111795,32.5095332 172.96526,32.5095332 C172.818725,32.5095332 172.693123,32.4467324 172.567521,32.3420644 L169.992689,29.7462985 L167.396923,32.3420644 C167.292255,32.4467324 167.14572,32.5095332 166.999185,32.5095332 C166.85265,32.5095332 166.727048,32.4467324 166.601446,32.3420644 C166.39211,32.1327285 166.39211,31.7768573 166.601446,31.5675214 L169.218146,28.9717554 L166.62238,26.3759895 C166.413044,26.1666535 166.413044,25.8107824 166.62238,25.6014464 C166.831716,25.3921105 167.187587,25.3921105 167.396923,25.6014464 L169.992689,28.1972124 L172.588455,25.6014464 C172.797791,25.3921105 173.153662,25.3921105 173.362998,25.6014464 C173.572334,25.8107824 173.572334,26.1666535 173.362998,26.3759895 L170.767232,28.9717554 L173.362998,31.5675214 Z" id="Shape"></path>
            </g>
        </g>
    </g>
</svg>