<?xml version="1.0" encoding="UTF-8"?>
<svg width="16px" height="16px" viewBox="0 0 16 16" version="1.1" xmlns="http://www.w3.org/2000/svg" xmlns:xlink="http://www.w3.org/1999/xlink">
    <!-- Generator: Sketch 52.6 (67491) - http://www.bohemiancoding.com/sketch -->
    <title>Group Copy</title>
    <desc>Created with Sketch.</desc>
    <g id="Self-Service-V5" stroke="none" stroke-width="1" fill="none" fill-rule="evenodd">
        <g id="1D-Invitation-History" transform="translate(-153.000000, -417.000000)" fill="#E1AA4E" fill-rule="nonzero">
            <g id="Group" transform="translate(0.000000, 396.000000)">
                <g id="Group-Copy" transform="translate(153.000000, 21.000000)">
                    <path d="M8.0505579,0.159924988 L8.01005157,0.159924988 C3.67797468,0.159924988 0.135021097,3.68547586 0.11161744,8.01905298 C0.101115799,10.1292827 0.912142522,12.1170933 2.39647445,13.6167276 C3.88080638,15.1163619 5.86051571,15.9480919 7.97074543,15.9585935 L8.01185185,15.9585935 C12.3442288,15.9585935 15.8874824,12.4336428 15.910286,8.10096578 C15.9207876,5.99013596 15.1091608,4.00232536 13.6248289,2.50209095 C12.140497,1.00275668 10.1607876,0.170426629 8.0505579,0.159924988 Z M7.54595848,10.773469 C7.86838976,10.4510377 8.44971739,10.4510377 8.77248843,10.773469 C8.93217515,10.9368931 9.02391008,11.1577364 9.02391008,11.385375 C9.02391008,11.6130135 8.93251491,11.8375942 8.77248843,12.0006785 C8.60906435,12.1600255 8.38482342,12.2521001 8.1571849,12.2521001 C7.92954638,12.2521001 7.70530545,12.1600255 7.54595848,12.0006785 C7.385932,11.8372544 7.29113924,11.6130135 7.29113924,11.385375 C7.29113924,11.1577364 7.385932,10.9365533 7.54595848,10.773469 Z M7.49367089,3.84810127 L8.71636192,3.84810127 L8.71636192,9.1743592 L7.49367089,9.1743592 L7.49367089,3.84810127 Z" id="Shape"></path>
                </g>
            </g>
        </g>
    </g>
</svg>