<?xml version="1.0" encoding="UTF-8"?>
<svg width="16px" height="16px" viewBox="0 0 16 16" version="1.1" xmlns="http://www.w3.org/2000/svg" xmlns:xlink="http://www.w3.org/1999/xlink">
    <!-- Generator: Sketch 52.6 (67491) - http://www.bohemiancoding.com/sketch -->
    <title>Shape</title>
    <desc>Created with Sketch.</desc>
    <g id="Self-Service-V5" stroke="none" stroke-width="1" fill="none" fill-rule="evenodd">
        <g id="1D-Invitation-History" transform="translate(-203.000000, -149.000000)" fill="#D46959" fill-rule="nonzero">
            <g id="Group-Copy-3" transform="translate(0.000000, 128.000000)">
                <path d="M211,37 C206.589,37 203,33.411 203,29 C203,24.589 206.589,21 211,21 C215.411,21 219,24.589 219,29 C219,33.411 215.411,37 211,37 Z M211,23 C207.691,23 205,25.691 205,29 C205,32.309 207.691,35 211,35 C214.309,35 217,32.309 217,29 C217,25.691 214.309,23 211,23 Z M206.707,23.293 L216.707,33.293 L215.293,34.707 L205.293,24.707 L206.707,23.293 Z" id="Shape"></path>
            </g>
        </g>
    </g>
</svg>