<?xml version="1.0" encoding="UTF-8"?>
<svg width="16px" height="16px" viewBox="0 0 16 16" version="1.1" xmlns="http://www.w3.org/2000/svg" xmlns:xlink="http://www.w3.org/1999/xlink">
    <!-- Generator: Sketch 52.6 (67491) - http://www.bohemiancoding.com/sketch -->
    <title>Shape</title>
    <desc>Created with Sketch.</desc>
    <g id="Self-Service-V5" stroke="none" stroke-width="1" fill="none" fill-rule="evenodd">
        <g id="1C-LCM" transform="translate(-175.000000, -212.000000)" fill="#5769CC" fill-rule="nonzero">
            <g id="Group" transform="translate(0.000000, 192.000000)">
                <path d="M183,20 C178.590352,20 175,23.5903515 175,28.0000121 C175,32.4096121 178.590327,36.0000121 183,36.0000121 C187.409673,36.0000121 191,32.4096121 191,28.0000121 C191,23.5903515 187.409648,20 183,20 Z M183,21.4545455 C186.623564,21.4545455 189.545455,24.3764606 189.545455,28.0000121 C189.545455,31.623503 186.623564,34.5454667 183,34.5454667 C179.376436,34.5454667 176.454545,31.623503 176.454545,28.0000121 C176.454545,24.3764606 179.376436,21.4545455 183,21.4545455 Z M183,22.6666667 C182.598352,22.6666667 182.272727,22.9922909 182.272727,23.3939394 L182.272727,28.0000121 C182.272727,28.2008364 182.353236,28.3835515 182.484848,28.5151394 L185.401515,31.4318182 C185.685522,31.7158424 186.147794,31.7158424 186.431818,31.4318182 C186.715828,31.1478182 186.715825,30.6855152 186.431818,30.4015152 L183.727273,27.6969818 L183.727273,23.3939394 C183.727273,22.9922909 183.401673,22.6666667 183,22.6666667 Z" id="Shape"></path>
            </g>
        </g>
    </g>
</svg>