<?xml version="1.0" encoding="UTF-8"?>
<svg width="40px" height="40px" viewBox="0 0 40 40" version="1.1" xmlns="http://www.w3.org/2000/svg" xmlns:xlink="http://www.w3.org/1999/xlink">
    <!-- Generator: Sketch 52.6 (67491) - http://www.bohemiancoding.com/sketch -->
    <title>Group Copy 3</title>
    <desc>Created with Sketch.</desc>
    <g id="Symbols" stroke="none" stroke-width="1" fill="none" fill-rule="evenodd">
        <g id="Group-Copy-3" fill="#5769CC" fill-rule="nonzero">
            <path d="M20,0 C31.0222222,0 40,8.97777778 40,20 C40,31.0222222 31.0222222,40 20,40 C8.97777778,40 0,31.0222222 0,20 C0,8.97777778 8.93333333,0 20,0 Z M28.9050293,13 L11.0949707,13 C10.4911295,13 10,13.491333 10,14.0951742 L10,15.1905518 L10,18.3605144 L10,26.1549073 C10,26.7587485 10.4911295,27.2500815 11.0949707,27.2500815 L28.9050293,27.2500815 C29.5088705,27.2500814 30,26.7587484 30,26.1549073 L30,18.3605143 L30,15.1905518 L30,14.0951741 C30,13.491333 29.5088705,13 28.9050293,13 Z M10.8333333,16.0238851 L29.1666667,16.0238851 L29.1666667,17.527181 L10.8333333,17.527181 L10.8333333,16.0238851 Z M29.1666667,26.1549073 C29.1666667,26.2993571 29.0494792,26.4167481 28.9050293,26.4167481 L11.0949707,26.4167481 C10.9505208,26.4167481 10.8333333,26.2993571 10.8333333,26.1549073 L10.8333333,18.3605143 L29.1666667,18.3605143 L29.1666667,26.1549073 Z M10.8333333,15.1905518 L10.8333333,14.0951742 C10.8333333,13.9507243 10.9505208,13.8333333 11.0949707,13.8333333 L28.9050293,13.8333333 C29.0494792,13.8333333 29.1666667,13.9507243 29.1666667,14.0951742 L29.1666667,15.1905518 L10.8333333,15.1905518 Z M12.3498535,21.6006673 L12.3498535,22.4340007 L16.7602539,22.4340007 L16.7602539,21.6006673 L12.3498535,21.6006673 Z M12.3498535,23.927531 L12.3498535,24.7608643 L19.1564941,24.7608643 L19.1564941,23.927531 L12.3498535,23.927531 Z M24.3530273,25.3343913 C24.7160848,25.3343913 25.0494893,25.2138214 25.3230285,25.0152792 C25.6020101,25.2175344 25.9337616,25.3343913 26.2837728,25.3343913 C27.1988932,25.3343913 27.9435221,24.5897624 27.9435221,23.674642 C27.9435221,22.7593181 27.1988932,22.0146892 26.2837728,22.0146892 C25.9335835,22.0146892 25.601832,22.1315715 25.3230285,22.3338013 C25.0494893,22.135259 24.7160848,22.0146892 24.3530273,22.0146892 C23.4379069,22.0146892 22.693278,22.7593181 22.693278,23.674642 C22.693278,24.5897624 23.4379069,25.3343913 24.3530273,25.3343913 Z M26.2837728,22.8480225 C26.739502,22.8480225 27.1101888,23.2189128 27.1101888,23.674642 C27.1101888,24.1303711 26.739502,24.501058 26.2837728,24.501058 C26.1303711,24.501058 25.9822591,24.4571126 25.8536784,24.3763428 C25.8553823,24.3728078 25.85584,24.368866 25.8575185,24.365331 C25.8986409,24.2761943 25.930074,24.1826325 25.9549968,24.0858663 C25.9603373,24.0655721 25.9691365,24.0463969 25.9736633,24.0258993 C25.9982554,23.9124502 26.0127767,23.795339 26.0127767,23.674642 C26.0127767,23.5539195 25.9982554,23.4368338 25.9736633,23.3233592 C25.9690857,23.3026835 25.9602356,23.2833558 25.9548696,23.262909 C25.9299723,23.1663463 25.8986155,23.072937 25.8575948,22.9839529 C25.8558909,22.9803416 25.8554077,22.9763489 25.8536784,22.9727377 C25.9822591,22.8919678 26.1303711,22.8480225 26.2837728,22.8480225 Z M24.3530273,22.8480225 C24.580129,22.8480225 24.78597,22.9402619 24.9354808,23.0890605 L24.9934896,23.1611328 C25.078125,23.2667237 25.1794434,23.4414877 25.1794434,23.674642 C25.1794434,23.9077963 25.078125,24.0825603 24.9934896,24.188151 L24.9358622,24.2598165 C24.7863261,24.4087677 24.580307,24.501058 24.3530273,24.501058 C23.8972982,24.501058 23.5266113,24.1303711 23.5266113,23.674642 C23.5266113,23.2189128 23.8972982,22.8480225 24.3530273,22.8480225 Z" id="CC"></path>
        </g>
    </g>
</svg>