<?xml version="1.0" encoding="UTF-8"?>
<svg width="224px" height="224px" viewBox="0 0 224 224" version="1.1" xmlns="http://www.w3.org/2000/svg" xmlns:xlink="http://www.w3.org/1999/xlink">
    <!-- Generator: Sketch 53.2 (72643) - https://sketchapp.com -->
    <title>img_large / transaction</title>
    <desc>Created with Sketch.</desc>
    <g id="img_large-/-transaction" stroke="none" stroke-width="1" fill="none" fill-rule="evenodd">
        <circle id="Oval-10-Copy-3" fill="#F5F6FA" cx="112" cy="112" r="112"></circle>
        <g id="Group-40" transform="translate(28.700000, 34.300000)">
            <g id="Group">
                <path d="M30.091954,33.0421456 L63.5243212,5.10990114 C64.7764773,4.06374337 66.6351578,4.2101721 67.7080489,5.43949944 L79.6551724,19.1286107 L30.091954,33.0421456 Z" id="Shape" fill="#C7C9D2"></path>
                <path d="M22.1886335,38.9425287 L1.89835646,56.3663792 C0.690490415,57.4036089 0.503235644,59.2037297 1.47175884,60.4673549 L59.5938697,136.298851 L22.1886335,38.9425287 Z" id="Shape" fill="#C7C9D2"></path>
                <path d="M38.9923372,14.1609195 L130.348659,14.1609195 C132.005513,14.1609195 133.348659,15.5040653 133.348659,17.1609195 L133.348659,138.019157 C133.348659,139.676011 132.005513,141.019157 130.348659,141.019157 L38.9923372,141.019157 C37.3354829,141.019157 35.9923372,139.676011 35.9923372,138.019157 L35.9923372,17.1609195 C35.9923372,15.5040653 37.3354829,14.1609195 38.9923372,14.1609195 Z" id="Rectangle-path" fill="#FFFFFF" transform="translate(84.670498, 77.590038) rotate(-22.500428) translate(-84.670498, -77.590038) "></path>
            </g>
            <path d="M92.0401875,124.266317 C94.7347632,121.919417 105.012037,116.6899 109.151299,118.633684 C111.776823,119.866621 106.80017,121.725751 107.971222,122.763952 C109.544658,124.158887 112.10149,124.659676 115.64172,124.266317" id="Path-15" stroke="#D9DBE1" stroke-width="5" transform="translate(103.840954, 121.302650) rotate(-35.000000) translate(-103.840954, -121.302650) "></path>
            <g id="Group-2" transform="translate(92.628481, 97.525624) rotate(-22.000000) translate(-92.628481, -97.525624) translate(56.928481, 83.525624)" fill="#D9DBE1">
                <path d="M2,0.478568131 L68.8045977,0.478568131 C69.9091672,0.478568131 70.8045977,1.37399863 70.8045977,2.47856813 L70.8045977,3.41157159 C70.8045977,4.51614109 69.9091672,5.41157159 68.8045977,5.41157159 L2,5.41157159 C0.8954305,5.41157159 1.3527075e-16,4.51614109 0,3.41157159 L0,2.47856813 C-1.3527075e-16,1.37399863 0.8954305,0.478568131 2,0.478568131 Z" id="Rectangle-Copy"></path>
                <rect id="Rectangle-Copy-2" x="0" y="11.5778259" width="70.8045977" height="4.93300346" rx="2"></rect>
                <rect id="Rectangle-Copy-3" x="0" y="22.6770837" width="41.9305294" height="4.93300346" rx="2"></rect>
            </g>
            <g id="Group-31-Copy-3" transform="translate(74.693908, 51.463272) rotate(-21.000000) translate(-74.693908, -51.463272) translate(31.993908, 28.363272)">
                <g id="bricks" transform="translate(52.856189, 22.023412)" fill="#ECEDF0">
                    <rect id="Rectangle-18" x="2.28828624" y="0" width="9.91590702" height="3.5482164" rx="1.7741082"></rect>
                    <path d="M1.7741082,4.61268132 L5.47213155,4.61268132 C6.45194445,4.61268132 7.24623975,5.40697662 7.24623975,6.38678952 L7.24623975,6.38678952 C7.24623975,7.36660242 6.45194445,8.16089772 5.47213155,8.16089772 L1.7741082,8.16089772 C0.794295296,8.16089772 1.19992474e-16,7.36660242 0,6.38678952 L0,6.38678952 C-1.19992474e-16,5.40697662 0.794295296,4.61268132 1.7741082,4.61268132 Z" id="Rectangle-18-Copy-3"></path>
                    <path d="M4.06239444,9.22536264 L12.7183713,9.22536264 C13.6981842,9.22536264 14.4924795,10.0196579 14.4924795,10.9994708 L14.4924795,10.9994708 C14.4924795,11.9792837 13.6981842,12.773579 12.7183713,12.773579 L4.06239444,12.773579 C3.08258153,12.773579 2.28828624,11.9792837 2.28828624,10.9994708 L2.28828624,10.9994708 C2.28828624,10.0196579 3.08258153,9.22536264 4.06239444,9.22536264 Z" id="Rectangle-18-Copy-6"></path>
                    <path d="M15.1224446,0 L17.6763248,-1.77635684e-15 C18.6561377,-1.95634555e-15 19.450433,0.794295296 19.450433,1.7741082 L19.450433,1.7741082 C19.450433,2.7539211 18.6561377,3.5482164 17.6763248,3.5482164 L15.1224446,3.5482164 C14.1426317,3.5482164 13.3483364,2.7539211 13.3483364,1.7741082 L13.3483364,1.7741082 C13.3483364,0.794295296 14.1426317,-4.20558946e-17 15.1224446,-2.22044605e-16 Z" id="Rectangle-18-Copy"></path>
                    <path d="M10.5458721,4.61268132 L20.3459921,4.61268132 C21.325805,4.61268132 22.1201003,5.40697662 22.1201003,6.38678952 L22.1201003,6.38678952 C22.1201003,7.36660242 21.325805,8.16089772 20.3459921,8.16089772 L10.5458721,8.16089772 C9.5660592,8.16089772 8.77176391,7.36660242 8.77176391,6.38678952 L8.77176391,6.38678952 C8.77176391,5.40697662 9.5660592,4.61268132 10.5458721,4.61268132 Z" id="Rectangle-18-Copy-4"></path>
                    <path d="M17.7921119,9.22536264 L19.58323,9.22536264 C20.5630429,9.22536264 21.3573382,10.0196579 21.3573382,10.9994708 L21.3573382,10.9994708 C21.3573382,11.9792837 20.5630429,12.773579 19.58323,12.773579 L17.7921119,12.773579 C16.812299,12.773579 16.0180037,11.9792837 16.0180037,10.9994708 L16.0180037,10.9994708 C16.0180037,10.0196579 16.812299,9.22536264 17.7921119,9.22536264 Z" id="Rectangle-18-Copy-7"></path>
                    <path d="M22.7500654,0 L26.0667077,2.22044605e-16 C27.0465206,4.20558946e-17 27.8408159,0.794295296 27.8408159,1.7741082 L27.8408159,1.7741082 C27.8408159,2.7539211 27.0465206,3.5482164 26.0667077,3.5482164 L22.7500654,3.5482164 C21.7702525,3.5482164 20.9759572,2.7539211 20.9759572,1.7741082 L20.9759572,1.7741082 C20.9759572,0.794295296 21.7702525,4.02033315e-16 22.7500654,2.22044605e-16 Z" id="Rectangle-18-Copy-2"></path>
                    <path d="M25.0383516,4.61268132 L26.8294698,4.61268132 C27.8092827,4.61268132 28.603578,5.40697662 28.603578,6.38678952 L28.603578,6.38678952 C28.603578,7.36660242 27.8092827,8.16089772 26.8294698,8.16089772 L25.0383516,8.16089772 C24.0585387,8.16089772 23.2642434,7.36660242 23.2642434,6.38678952 L23.2642434,6.38678952 C23.2642434,5.40697662 24.0585387,4.61268132 25.0383516,4.61268132 Z" id="Rectangle-18-Copy-5"></path>
                    <rect id="Rectangle-18-Copy-8" x="22.5014813" y="9.22536264" width="8.77176391" height="3.5482164" rx="1.7741082"></rect>
                </g>
                <g id="bricks-copy" transform="translate(0.000000, 18.059198)" fill="#ECEDF0">
                    <path d="M4.06239444,0 L10.4300851,0 C11.409898,-1.7998871e-16 12.2041933,0.794295296 12.2041933,1.7741082 L12.2041933,1.7741082 C12.2041933,2.7539211 11.409898,3.5482164 10.4300851,3.5482164 L4.06239444,3.5482164 C3.08258153,3.5482164 2.28828624,2.7539211 2.28828624,1.7741082 L2.28828624,1.7741082 C2.28828624,0.794295296 3.08258153,1.7998871e-16 4.06239444,0 Z" id="Rectangle-18"></path>
                    <rect id="Rectangle-18-Copy-3" x="0" y="4.61268132" width="7.24623975" height="3.5482164" rx="1.7741082"></rect>
                    <rect id="Rectangle-18-Copy-6" x="2.28828624" y="9.22536264" width="12.2041933" height="3.5482164" rx="1.7741082"></rect>
                    <path d="M15.1224446,0 L17.6763248,6.66133815e-16 C18.6561377,4.86145104e-16 19.450433,0.794295296 19.450433,1.7741082 L19.450433,1.7741082 C19.450433,2.7539211 18.6561377,3.5482164 17.6763248,3.5482164 L15.1224446,3.5482164 C14.1426317,3.5482164 13.3483364,2.7539211 13.3483364,1.7741082 L13.3483364,1.7741082 C13.3483364,0.794295296 14.1426317,-4.20558946e-17 15.1224446,-2.22044605e-16 Z" id="Rectangle-18-Copy"></path>
                    <path d="M10.5458721,4.61268132 L20.3459921,4.61268132 C21.325805,4.61268132 22.1201003,5.40697662 22.1201003,6.38678952 L22.1201003,6.38678952 C22.1201003,7.36660242 21.325805,8.16089772 20.3459921,8.16089772 L10.5458721,8.16089772 C9.5660592,8.16089772 8.77176391,7.36660242 8.77176391,6.38678952 L8.77176391,6.38678952 C8.77176391,5.40697662 9.5660592,4.61268132 10.5458721,4.61268132 Z" id="Rectangle-18-Copy-4"></path>
                    <path d="M17.7921119,9.22536264 L19.58323,9.22536264 C20.5630429,9.22536264 21.3573382,10.0196579 21.3573382,10.9994708 L21.3573382,10.9994708 C21.3573382,11.9792837 20.5630429,12.773579 19.58323,12.773579 L17.7921119,12.773579 C16.812299,12.773579 16.0180037,11.9792837 16.0180037,10.9994708 L16.0180037,10.9994708 C16.0180037,10.0196579 16.812299,9.22536264 17.7921119,9.22536264 Z" id="Rectangle-18-Copy-7"></path>
                    <path d="M22.7500654,0 L26.0667077,6.66133815e-16 C27.0465206,4.86145104e-16 27.8408159,0.794295296 27.8408159,1.7741082 L27.8408159,1.7741082 C27.8408159,2.7539211 27.0465206,3.5482164 26.0667077,3.5482164 L22.7500654,3.5482164 C21.7702525,3.5482164 20.9759572,2.7539211 20.9759572,1.7741082 L20.9759572,1.7741082 C20.9759572,0.794295296 21.7702525,-2.64100499e-16 22.7500654,-4.4408921e-16 Z" id="Rectangle-18-Copy-2"></path>
                    <rect id="Rectangle-18-Copy-5" x="23.2642434" y="4.61268132" width="5.33933455" height="3.5482164" rx="1.7741082"></rect>
                    <path d="M24.2755895,9.22536264 L29.499137,9.22536264 C30.4789499,9.22536264 31.2732452,10.0196579 31.2732452,10.9994708 L31.2732452,10.9994708 C31.2732452,11.9792837 30.4789499,12.773579 29.499137,12.773579 L24.2755895,12.773579 C23.2957766,12.773579 22.5014813,11.9792837 22.5014813,10.9994708 L22.5014813,10.9994708 C22.5014813,10.0196579 23.2957766,9.22536264 24.2755895,9.22536264 Z" id="Rectangle-18-Copy-8"></path>
                </g>
                <g id="Group-31-Copy" transform="translate(8.368897, 0.000000)">
                    <polygon id="Shape" fill="#DADEF5" fill-rule="nonzero" points="26.7202023 23.5981063 10.6621691 23.5981063 10.6621691 14.9861537 7.52355352 14.9861537 24.5304705 0 39.2016736 12.7484023"></polygon>
                    <polygon id="Rectangle-path" fill="#FFFFFF" points="16.574445 11.3776584 22.910069 11.3776584 22.910069 22.333922 16.574445 22.333922"></polygon>
                    <polygon id="Shape" fill="#FFFFFF" points="32.413505 19.508722 29.3930331 22.333922 26.077881 22.333922 26.077881 11.3776584 32.339835 11.3776584"></polygon>
                    <polyline id="Shape" fill="#C0C7EC" fill-rule="nonzero" points="26.9829701 23.5981063 9.15626335 23.5981063 4.80828608 28.2334486 26.9829701 28.2334486"></polyline>
                    <polygon id="Rectangle-path" fill="#DADEF5" fill-rule="nonzero" points="10.238821 28.2334486 27.4355147 28.2334486 27.4355147 43.4036598 10.238821 43.4036598"></polygon>
                    <path d="M14.3117221,43.4036598 L14.3117221,36.3440284 C14.3117221,33.9451245 16.3230313,32.0260014 18.8371678,32.0260014 L18.8371678,32.0260014 C21.3513043,32.0260014 23.3626136,33.9451245 23.3626136,36.3440284 L23.3626136,43.4036598" id="Shape" fill="#FFFFFF"></path>
                    <path d="M0.430293595,43.5020662 C0.430293595,43.5020662 -0.745020307,34.8981537 7.482177,37.4011101 C7.482177,37.4011101 13.4706812,34.063835 15.0377664,38.7047332 C15.0377664,38.7047332 19.8509566,39.539052 19.235316,43.606356 L0.430293595,43.5020662 Z" id="Shape" fill="#A2ACE3" fill-rule="nonzero"></path>
                    <polygon id="Rectangle-19" fill="#7584D5" fill-rule="nonzero" points="15.2168113 16.0130007 23.8151581 16.0130007 23.8151581 17.277185 15.2168113 17.277185"></polygon>
                    <polygon id="Rectangle-19-Copy" fill="#7584D5" fill-rule="nonzero" points="25.1727918 16.0130007 33.7711387 16.0130007 33.7711387 17.277185 25.1727918 17.277185"></polygon>
                </g>
                <g id="Group-28" transform="translate(28.630436, 8.368897)" fill-rule="nonzero">
                    <polygon id="Shape-Copy-11" fill="#DADEF5" points="43.5173247 19.9990935 22.2663645 0.192398975 0.145057749 20.5398906 5.07702121 20.5398906 5.07702121 37.3046013 38.5128324 37.3046013 38.5128324 20.0666931"></polygon>
                    <polygon id="Rectangle-path" fill="#C0C7EC" points="8.70346494 20.7426895 34.8138598 20.7426895 34.8138598 37.2370017 8.70346494 37.2370017"></polygon>
                    <path d="M16.3189968,17.835905 C16.3189968,17.835905 15.3761214,9.65634858 22.0487778,9.65634858 C28.3587899,9.65634858 27.7060301,17.835905 27.7060301,17.835905 L16.3189968,17.835905 Z" id="Shape" fill="#7584D5"></path>
                    <polygon id="Rectangle-17" fill="#A2ACE3" points="8.9379017 24.5438693 34.8578166 24.5438693 34.8578166 25.3758649 8.9379017 25.3758649"></polygon>
                    <polygon id="Rectangle-17-Copy" fill="#A2ACE3" points="8.9379017 28.7038471 34.8578166 28.7038471 34.8578166 29.5358427 8.9379017 29.5358427"></polygon>
                    <polygon id="Rectangle-17-Copy-2" fill="#A2ACE3" points="8.9379017 32.863825 34.8578166 32.863825 34.8578166 33.6958206 8.9379017 33.6958206"></polygon>
                </g>
            </g>
        </g>
        <g id="Group-33-Copy" transform="translate(166.858308, 125.475067) rotate(35.000000) translate(-166.858308, -125.475067) translate(158.458308, 90.125067)" fill-rule="nonzero">
            <path d="M0,0 L12.6,0 L12.6,51.6 C12.6,53.2568542 11.2568542,54.6 9.6,54.6 L3,54.6 C1.34314575,54.6 -2.41183085e-16,53.2568542 -4.4408921e-16,51.6 L0,0 Z" id="Combined-Shape-Copy-5" fill="#A2ACE3" transform="translate(6.300000, 27.300000) rotate(-180.000000) translate(-6.300000, -27.300000) "></path>
            <path d="M0,55.8689567 L6.3,55.8689567 L6.3,70.5689567 C2.1,67.4935539 0,63.6655998 0,59.0850944 C1.12578145e-16,54.5045891 1.12578145e-16,53.4325432 0,55.8689567 Z" id="Combined-Shape" fill="#7584D5"></path>
            <path d="M12.6,55.8689567 C12.6,53.4325432 12.6,54.5045891 12.6,59.0850944 C12.6,63.6655998 10.5,67.4935539 6.3,70.5689567 L6.3,55.8689567 L12.6,55.8689567 Z" id="Combined-Shape-Copy-6" fill="#7584D5"></path>
            <path d="M12.6,4.2 C15.4,4.58793945 16.8,5.98793945 16.8,8.4 C16.8,10.8120605 16.8,17.4620605 16.8,28.35 L14.7,28.35 L14.7,8.4 C14.5794312,7.26933594 13.8794312,6.70400391 12.6,6.70400391" id="Path-13" fill="#A2ACE3"></path>
        </g>
    </g>
</svg>